<?xml version="1.0"?>
<svg xmlns="http://www.w3.org/2000/svg" width="517" height="120" viewBox="0 0 517 120" role="img" aria-label="safetybox">
  <g transform="scale(5)">
    <path d="M7 3 H17 A4 4 0 0 1 21 7 V17 A4 4 0 0 1 17 21 H7 A4 4 0 0 1 3 17 V7 A4 4 0 0 1 7 3 Z" fill="#1E293B"></path>
    <path d="M10.9 12.02 A2.4 2.4 0 1 1 13.1 12.02 L13.95 16.4 H10.05 Z" fill="#F59E0B"></path>
  </g>
  <path transform="translate(120 79.9) scale(0.725)" d="M32.20 0.90L27.80 0.90Q18.30 0.90 12.90-3.40Q7.50-7.70 7.50-15.40L7.50-15.40L18.20-15.40Q18.20-11.90 20.70-9.95Q23.20-8 27.80-8L27.80-8L32.20-8Q36.90-8 39.50-9.95Q42.10-11.90 42.10-15.50L42.10-15.50Q42.10-21.80 35.40-22.70L35.40-22.70L20.90-24.70Q14.80-25.50 11.45-29.55Q8.10-33.60 8.10-40.10L8.10-40.10Q8.10-47.60 13.20-51.75Q18.30-55.90 27.60-55.90L27.60-55.90L32.10-55.90Q40.70-55.90 46.05-51.80Q51.40-47.70 51.70-41L51.70-41L40.90-41Q40.70-43.70 38.35-45.45Q36-47.20 32.10-47.20L32.10-47.20L27.60-47.20Q23.30-47.20 20.95-45.30Q18.60-43.40 18.60-40.20L18.60-40.20Q18.60-35.10 24.30-34.30L24.30-34.30L37.90-32.50Q52.60-30.50 52.60-15.60L52.60-15.60Q52.60-7.70 47.30-3.40Q42 0.90 32.20 0.90L32.20 0.90ZM84.50 1L84.50 1Q76.10 1 71.15-3.75Q66.20-8.50 66.20-16.20L66.20-16.20Q66.20-24 71.50-28.75Q76.80-33.50 85.60-33.50L85.60-33.50L100.80-33.50L100.80-37.50Q100.80-47 90.10-47L90.10-47Q85.30-47 82.40-45.20Q79.50-43.40 79.30-40.20L79.30-40.20L68.70-40.20Q69.20-47.10 74.90-51.55Q80.60-56 90.20-56L90.20-56Q100.40-56 106-51.15Q111.60-46.30 111.60-37.60L111.60-37.60L111.60 0L101 0L101-10.30L100.90-10.30Q100.20-5 95.90-2Q91.60 1 84.50 1ZM87.60-7.90L87.60-7.90Q93.70-7.90 97.25-10.85Q100.80-13.80 100.80-18.80L100.80-18.80L100.80-25.90L86.40-25.90Q82.10-25.90 79.55-23.40Q77-20.90 77-17L77-17Q77-12.80 79.80-10.35Q82.60-7.90 87.60-7.90ZM151.60 0L140.80 0L140.80-37.70L125.20-37.70L125.20-47.50L140.80-47.50L140.80-58.10Q140.80-65 145.20-69Q149.60-73 157.20-73L157.20-73L173.30-73L173.30-63.40L157.40-63.40Q151.60-63.40 151.60-58L151.60-58L151.60-47.50L173.30-47.50L173.30-37.70L151.60-37.70L151.60 0ZM210 1L210 1Q199.90 1 193.80-4.90Q187.70-10.80 187.70-21L187.70-21L187.70-34Q187.70-44.20 193.80-50.10Q199.90-56 210-56L210-56Q216.80-56 221.80-53.35Q226.80-50.70 229.55-45.90Q232.30-41.10 232.30-34.70L232.30-34.70L232.30-24.80L198.10-24.80L198.10-20.30Q198.10-14.50 201.30-11.30Q204.50-8.10 210-8.10L210-8.10Q214.50-8.10 217.50-9.75Q220.50-11.40 221.10-14.30L221.10-14.30L231.80-14.30Q230.70-7.30 224.75-3.15Q218.80 1 210 1ZM198.10-34.70L198.10-34.70L198.10-32.40L221.90-32.40L221.90-34.80Q221.90-40.90 218.80-44.20Q215.70-47.50 210-47.50L210-47.50Q204.30-47.50 201.20-44.15Q198.10-40.80 198.10-34.70ZM292.10 0L275.50 0Q268.20 0 263.90-4.20Q259.60-8.40 259.60-15.60L259.60-15.60L259.60-45.20L244.10-45.20L244.10-55L259.60-55L259.60-70.50L270.40-70.50L270.40-55L292.60-55L292.60-45.20L270.40-45.20L270.40-15.70Q270.40-13.10 271.90-11.45Q273.40-9.80 276-9.80L276-9.80L292.10-9.80L292.10 0ZM328.40 18L317.10 18L325.10-3.20L304.50-55L316-55L327.70-24Q328.60-21.80 329.40-19.20Q330.20-16.60 330.50-14.60L330.50-14.60Q330.90-16.60 331.65-19.20Q332.40-21.80 333.20-24L333.20-24L344.10-55L355.50-55L328.40 18ZM394.10 1L394.10 1Q388.10 1 384.15-2Q380.20-5 379.10-10.40L379.10-10.40L379.10 0L368.40 0L368.40-73L379.20-73L379.20-57.30L378.90-44.60Q380.10-49.90 384.15-52.95Q388.20-56 394.10-56L394.10-56Q402.30-56 407.20-50.40Q412.10-44.80 412.10-35.20L412.10-35.20L412.10-19.70Q412.10-10.20 407.20-4.60Q402.30 1 394.10 1ZM390.30-8.40L390.30-8.40Q395.50-8.40 398.40-11.15Q401.30-13.90 401.30-20L401.30-20L401.30-35.10Q401.30-41.10 398.40-43.85Q395.50-46.60 390.30-46.60L390.30-46.60Q385.10-46.60 382.15-43.45Q379.20-40.30 379.20-34.60L379.20-34.60L379.20-20.50Q379.20-14.70 382.15-11.55Q385.10-8.40 390.30-8.40ZM450 0.90L450 0.90Q439.80 0.90 433.75-5Q427.70-10.90 427.70-21.10L427.70-21.10L427.70-33.90Q427.70-44.20 433.70-50.05Q439.70-55.90 450-55.90L450-55.90Q460.30-55.90 466.30-50.05Q472.30-44.20 472.30-33.90L472.30-33.90L472.30-21.10Q472.30-10.90 466.25-5Q460.20 0.90 450 0.90ZM450-8.60L450-8.60Q455.40-8.60 458.45-11.65Q461.50-14.70 461.50-20.40L461.50-20.40L461.50-34.60Q461.50-40.30 458.45-43.35Q455.40-46.40 450-46.40L450-46.40Q444.60-46.40 441.55-43.35Q438.50-40.30 438.50-34.60L438.50-34.60L438.50-20.40Q438.50-14.70 441.55-11.65Q444.60-8.60 450-8.60ZM496.70 0L484.30 0L503.60-28.40L485.50-55L497.90-55L507.60-39.80Q508.30-38.60 509-37.25Q509.70-35.90 510.10-35L510.10-35Q510.40-35.90 511.05-37.25Q511.70-38.60 512.50-39.80L512.50-39.80L522.10-55L534.60-55L516.50-28.30L535.70 0L523.30 0L512.60-16.50Q511.90-17.70 511.20-19.20Q510.50-20.70 510.10-21.60L510.10-21.60Q509.60-20.70 508.90-19.20Q508.20-17.70 507.40-16.50L507.40-16.50L496.70 0Z" fill="#1E293B"></path>
</svg>